<?xml version="1.0" standalone="no"?>
<!DOCTYPE svg PUBLIC "-//W3C//DTD SVG 20010904//EN"
 "http://www.w3.org/TR/2001/REC-SVG-20010904/DTD/svg10.dtd">
<svg version="1.0" xmlns="http://www.w3.org/2000/svg"
 width="2557.000000pt" height="1437.000000pt" viewBox="0 0 2557.000000 1437.000000"
 preserveAspectRatio="xMidYMid meet">

<g transform="translate(0.000000,1437.000000) scale(0.100000,-0.100000)"
fill="#000000" stroke="none">
<path d="M13737 8400 c-233 -28 -440 -155 -524 -321 -57 -115 -71 -291 -32
-424 11 -38 23 -81 26 -95 3 -14 9 -30 14 -36 5 -6 10 -25 11 -43 3 -33 3 -33
-72 -55 -111 -33 -192 -80 -258 -150 -55 -59 -108 -152 -131 -226 -5 -19 -15
-51 -22 -70 -17 -51 -24 -345 -9 -400 6 -25 14 -56 16 -70 3 -14 22 -59 42
-100 50 -103 175 -228 287 -287 276 -145 679 -181 1012 -92 38 10 47 9 106
-20 l64 -31 359 2 c360 3 420 10 300 34 -30 6 -69 21 -88 32 -60 37 -188 185
-188 217 0 6 29 42 65 79 36 37 65 71 65 76 0 4 15 30 33 58 44 65 64 128 73
232 3 47 8 88 10 91 5 9 -15 179 -25 214 -22 75 -43 142 -51 160 -15 37 -30
102 -30 129 0 22 8 31 43 46 23 11 59 20 79 20 40 0 59 17 37 31 -8 5 -126 9
-264 9 -137 0 -256 -4 -264 -9 -20 -13 -4 -31 28 -31 75 0 207 -71 257 -137
10 -15 33 -43 50 -64 17 -20 36 -52 43 -70 7 -19 17 -43 21 -54 44 -109 54
-302 21 -416 -20 -70 -57 -160 -69 -169 -4 -3 -27 -30 -51 -60 -23 -30 -56
-63 -72 -74 -29 -18 -29 -18 -48 5 -11 13 -26 35 -33 49 -7 14 -22 39 -33 55
-36 54 -45 70 -51 88 -4 9 -10 17 -15 17 -5 0 -9 5 -9 11 0 6 -11 25 -25 43
-14 18 -25 38 -25 43 0 6 -6 16 -14 22 -8 7 -21 26 -30 44 -18 36 -38 69 -46
77 -10 10 -31 45 -36 63 -4 9 -10 17 -15 17 -5 0 -9 5 -9 11 0 6 -10 25 -23
42 -13 18 -32 49 -42 70 -11 20 -23 37 -27 37 -5 0 -8 4 -8 10 0 5 -112 189
-248 407 -228 365 -331 549 -361 644 -18 57 -13 129 12 178 18 35 35 51 81 75
51 26 71 31 155 34 114 5 184 -8 269 -48 74 -35 139 -93 192 -172 47 -70 61
-110 69 -198 4 -48 10 -65 21 -65 13 0 15 25 18 154 l3 154 -43 39 c-55 51
-202 123 -298 147 -94 23 -205 31 -293 21z m-413 -1091 c20 -33 36 -63 36 -66
0 -3 15 -26 34 -52 18 -25 46 -68 61 -96 15 -27 33 -57 41 -66 8 -8 14 -19 14
-23 0 -4 11 -22 25 -40 14 -18 25 -38 25 -44 0 -6 4 -12 8 -14 6 -2 178 -270
285 -443 7 -11 33 -53 60 -94 26 -40 47 -76 47 -78 0 -2 11 -19 25 -37 14 -18
25 -37 25 -41 0 -4 11 -23 25 -41 14 -18 25 -36 25 -39 0 -4 9 -18 20 -33 11
-14 17 -29 13 -33 -4 -4 -60 -17 -123 -30 -282 -56 -521 -9 -651 128 -44 45
-100 134 -117 185 -45 132 -46 141 -46 468 1 314 1 315 27 393 30 87 70 157
91 157 7 0 30 -27 50 -61z"/>
<path d="M7625 7840 c-134 -11 -210 -26 -312 -60 -247 -84 -409 -243 -506
-495 -65 -170 -76 -482 -25 -680 16 -60 40 -129 50 -139 4 -6 8 -16 8 -24 0
-30 113 -183 182 -247 53 -49 100 -80 173 -116 121 -59 201 -82 360 -104 344
-49 600 39 861 295 l74 73 0 169 c0 161 1 172 26 224 38 80 76 104 208 131 22
5 41 14 44 21 3 10 -108 12 -525 10 -345 -2 -527 -6 -526 -13 1 -5 35 -17 77
-26 90 -19 137 -49 171 -110 25 -47 25 -47 25 -309 0 -262 0 -262 -25 -309
-50 -92 -171 -147 -285 -131 -111 16 -183 50 -248 119 -95 100 -116 238 -116
756 0 541 26 721 121 826 75 83 186 115 366 106 302 -15 493 -159 571 -429 11
-38 22 -58 32 -58 12 0 14 10 9 58 -15 162 -25 294 -25 350 0 73 -14 86 -56
53 -43 -34 -142 -29 -278 13 -148 46 -268 59 -431 46z"/>
<path d="M11703 7839 c-241 -18 -454 -113 -564 -251 -69 -88 -99 -177 -99
-298 0 -137 42 -239 137 -335 69 -69 148 -117 344 -206 85 -38 168 -76 184
-84 17 -8 82 -38 145 -68 171 -80 242 -151 270 -269 11 -47 11 -68 0 -120 -31
-145 -142 -210 -358 -210 -260 0 -468 100 -609 293 -47 64 -93 160 -93 193 0
26 -24 51 -40 41 -6 -4 -10 -98 -10 -271 0 -228 2 -264 15 -264 11 0 15 12 15
49 0 95 48 160 109 146 16 -3 61 -28 101 -56 215 -148 417 -191 728 -155 309
36 492 133 579 308 50 102 53 114 53 227 0 150 -35 235 -138 338 -86 85 -138
115 -468 270 -411 191 -488 242 -527 343 -21 57 -21 83 0 145 23 64 96 138
170 172 137 63 422 32 575 -63 58 -35 124 -101 147 -144 10 -19 27 -51 38 -70
16 -29 46 -109 59 -157 2 -7 8 -13 14 -13 20 0 2 452 -20 474 -5 5 -21 -1 -40
-18 -44 -36 -134 -36 -251 0 -171 54 -285 67 -466 53z"/>
<path d="M16000 7843 c-282 -17 -468 -81 -632 -217 -102 -84 -209 -249 -240
-366 -68 -262 -65 -527 11 -747 83 -244 283 -423 561 -503 85 -24 272 -50 363
-50 142 0 318 40 435 99 101 51 222 140 222 163 0 12 -31 -4 -122 -65 -145
-96 -264 -139 -435 -156 -270 -28 -442 81 -489 309 -21 103 -34 549 -24 828
10 253 19 336 48 432 53 179 186 251 442 237 225 -12 408 -109 489 -259 58
-108 66 -126 77 -178 8 -40 16 -56 29 -59 17 -3 18 3 11 70 -4 41 -11 137 -16
214 -10 155 -18 205 -32 205 -5 0 -21 -9 -35 -20 -42 -33 -143 -27 -277 14
-131 41 -259 57 -386 49z"/>
<path d="M17780 7842 c-191 -8 -325 -40 -465 -110 -96 -47 -139 -79 -213 -155
-54 -54 -142 -175 -142 -193 0 -3 -6 -20 -14 -37 -118 -271 -114 -655 11 -917
69 -144 204 -280 358 -357 64 -33 223 -80 315 -95 108 -17 363 -16 460 1 226
40 388 116 510 240 68 69 91 98 116 142 10 19 22 36 25 39 6 6 51 119 69 173
34 109 50 369 30 507 -55 380 -267 623 -630 724 -96 26 -299 44 -430 38z m202
-43 c104 -22 177 -77 218 -164 27 -59 34 -88 61 -255 29 -183 29 -752 0 -950
-11 -74 -21 -142 -24 -150 -33 -106 -47 -138 -75 -171 -129 -150 -481 -150
-614 0 -43 50 -52 68 -74 149 -31 118 -39 247 -39 647 0 474 11 598 66 721 37
85 113 146 213 170 65 16 200 17 268 3z"/>
<path d="M8770 7815 c0 -9 14 -16 38 -20 113 -19 178 -58 212 -126 19 -36 20
-61 20 -383 0 -365 10 -556 36 -671 19 -87 60 -198 91 -247 12 -21 23 -42 23
-48 0 -20 166 -175 222 -209 118 -69 247 -110 428 -137 302 -44 508 17 643
190 56 72 65 88 114 209 64 161 72 236 82 792 8 521 6 502 76 564 34 29 108
57 170 63 19 2 31 9 33 21 3 16 -16 17 -287 17 -194 0 -292 -4 -296 -11 -10
-16 0 -21 57 -30 83 -13 148 -51 183 -106 l30 -48 0 -460 c-1 -385 -4 -474
-17 -545 -10 -47 -19 -96 -21 -110 -36 -197 -151 -380 -287 -457 -192 -109
-432 -90 -562 44 -38 39 -98 146 -98 173 0 9 -4 20 -9 26 -4 5 -14 50 -22 99
-11 69 -14 218 -14 640 0 612 0 611 65 677 35 35 114 68 164 68 28 0 50 15 42
29 -5 8 -166 11 -562 11 -478 0 -554 -2 -554 -15z"/>
</g>
</svg>
